<?xml version="1.0" encoding="UTF-8" standalone="no"?>
<svg
   xmlns:dc="http://purl.org/dc/elements/1.1/"
   xmlns:cc="http://creativecommons.org/ns#"
   xmlns:rdf="http://www.w3.org/1999/02/22-rdf-syntax-ns#"
   xmlns:svg="http://www.w3.org/2000/svg"
   xmlns="http://www.w3.org/2000/svg"
   xmlns:xlink="http://www.w3.org/1999/xlink"
   width="297mm"
   height="210mm"
   viewBox="0 0 297 210"
   version="1.1"
   id="svg1543">
  <style>
    path {
      fill: rgba(0, 0, 0, 0.1);
      cursor: pointer;
    }

    path:hover {
      fill: rgba(0, 0, 255, 0.2);
    }

    .bookable {
      fill: rgba(0, 255, 0, 0.2);
    }
      .booked{
      fill: rgba(255, 0, 28, 0.3);
      }

      .mine{
      fill: rgba(255, 152, 0, 0.3);
      }

      .unbookable {
      fill: rgba(0, 0, 0, 0.1);
    }
  </style>
  <script>
      function alertEl(el) {
      var isBooked = false;
      if (el.classList.contains("booked"))
      isBooked = true;

      var nums = el.id.replace( /^\D+/g, '');
      var letters = el.id.match(/[a-zA-Z]+/g);
      window.top.location.href='/book/' + letters + '-' + nums;
      }
  </script>
  <g
     id="layer1"
     transform="translate(0,-87)">
    <image y="85.238846" x="-0.58586949" id="image2166" xlink:href="ILC-2.png" preserveAspectRatio="none" height="216.39136" width="301.28482"/>
    <path
       style="stroke:#000000;stroke-width:0.26458332px;stroke-linecap:butt;stroke-linejoin:miter;stroke-opacity:1"
       d="m 175.06597,141.68959 -0.17639,-11.1125 -14.81667,0.0882 0.35278,7.76111 1.32292,0.52917 1.05833,0.61736 0.52917,0.61736 0.17639,1.85209 z"
       id="bmh217"
       class="bookable"
       tabindex="0"
       onclick="alertEl(this)"
       role="link"
        />
    <path
       style="stroke:#000000;stroke-width:0.26458332px;stroke-linecap:butt;stroke-linejoin:miter;stroke-opacity:1"
       d="m 160.16111,145.21737 0.17639,8.20208 h 14.64027 l 0.0882,-11.72986 -11.55347,0.35278 v 1.05833 l -0.88195,0.97014 -0.97014,0.79375 z"
       id="bmh216"
       class="bookable"
       tabindex="0"
       onclick="alertEl(this)"
       role="link"
        />
    <path
       style="stroke:#000000;stroke-width:0.26458332px;stroke-linecap:butt;stroke-linejoin:miter;stroke-opacity:1"
       d="m 174.88958,130.57709 13.67014,0.0882 v 0.88195 h -3.175 l 0.0882,1.23472 1.05834,0.88194 1.23472,0.70556 h 0.79375 v 19.05 h -13.58195 z"
       id="bmh218"
       class="bookable"
       tabindex="0"
       onclick="alertEl(this)"
       role="link"
        />
    <path
       style="stroke:#000000;stroke-width:0.26458332px;stroke-linecap:butt;stroke-linejoin:miter;stroke-opacity:1"
       d="m 188.55972,140.54306 0.52917,0.0882 v 2.73402 l 1.14652,-0.26458 0.97014,-0.61736 0.70556,-1.05833 0.0882,-1.23473 13.58195,0.17639 v 8.64306 h -17.10973 z"
       id="bmh219"
       class="bookable"
       tabindex="0"
       onclick="alertEl(this)"
       role="link"
        />
    <path
       style="stroke:#000000;stroke-width:0.26458332px;stroke-linecap:butt;stroke-linejoin:miter;stroke-opacity:1"
       d="m 205.58126,140.36667 -10e-6,-2.11666 1.23472,-0.0882 v 3.08681 l 1.32292,-0.17639 1.32291,-1.05834 0.52917,-1.76388 7.58472,-0.0882 0.0882,12.52361 -12.08264,-0.0882 z"
       id="bmh221"
       class="bookable"
       tabindex="0"
       onclick="alertEl(this)"
       role="link"
        />
    <path
       style="stroke:#000000;stroke-width:0.26458332px;stroke-linecap:butt;stroke-linejoin:miter;stroke-opacity:1"
       d="m 217.66389,150.68542 -0.0882,-12.52361 12.25903,0.0882 v 8.81944 l -1.5875,0.44097 -1.5875,1.32292 -0.35278,0.97014 3.52778,0.0882 v 0.70556 z"
       id="bmh223"
       class="bookable"
       tabindex="0"
       onclick="alertEl(this)"
       role="link"
        />
    <path
       style="stroke:#000000;stroke-width:0.26458332px;stroke-linecap:butt;stroke-linejoin:miter;stroke-opacity:1"
       d="m 236.18472,141.77778 0.0882,-8.02569 1.41111,-0.26458 1.32292,-0.70556 0.61736,-1.76389 -3.35139,-0.0882 v -0.88195 h 15.69861 l 0.35278,11.64167 z"
       id="bmh227"
       class="bookable"
       tabindex="0"
       onclick="alertEl(this)"
       role="link"
        />
    <path
       style="stroke:#000000;stroke-width:0.26458332px;stroke-linecap:butt;stroke-linejoin:miter;stroke-opacity:1"
       d="m 188.47153,149.00973 -0.0882,17.3743 h 0.97014 l -0.0882,-2.99861 1.41112,0.17639 0.79375,0.52917 0.44097,0.88194 0.44097,0.44097 0.17639,1.14653 13.14097,-1.67569 -0.0882,-15.875 z"
       id="bmh220"
       class="bookable"
       tabindex="0"
       onclick="alertEl(this)"
       role="link"
        />
    <path
       style="stroke:#000000;stroke-width:0.26458332px;stroke-linecap:butt;stroke-linejoin:miter;stroke-opacity:1"
       d="m 205.58125,150.59722 0.0882,13.58195 h 0.79375 v -2.99861 h 0.79375 l 1.05833,0.70556 0.88195,1.05833 0.44097,1.32292 7.23195,-1.05834 v -12.6118 z"
       id="bmh222"
       class="bookable"
       tabindex="0"
       onclick="alertEl(this)"
       role="link"
        />
    <path
       style="stroke:#000000;stroke-width:0.26458332px;stroke-linecap:butt;stroke-linejoin:miter;stroke-opacity:1"
       d="m 216.87015,150.59723 12.96457,-0.0882 -0.0882,0.79375 -3.43958,0.26459 0.52917,1.32291 0.79375,0.70556 1.23472,0.52917 1.05833,0.35277 -1.14652,7.49653 -11.90624,1.23472 z"
       id="bmh224"
       class="bookable"
       tabindex="0"
       onclick="alertEl(this)"
       role="link"
        />
    <path
       style="stroke:#000000;stroke-width:0.26458332px;stroke-linecap:butt;stroke-linejoin:miter;stroke-opacity:1"
       d="m 252.32431,141.68958 0.0882,17.19793 -14.64028,1.94027 -0.17639,-0.88194 3.175,-0.52917 -0.61736,-1.23472 -1.05833,-0.88194 -1.41112,-0.35278 h -0.35277 l -0.97014,-5.90903 -0.17639,-9.26042 z"
       id="bmh228"
       class="bookable"
       tabindex="0"
       onclick="alertEl(this)"
       role="link"
        />
    <path
       style="stroke:#000000;stroke-width:0.26458332px;stroke-linecap:butt;stroke-linejoin:miter;stroke-opacity:1"
       d="m 163.4243,216.0375 -6.96736,-34.925 -19.22639,2.64584 -15.875,1.4993 -8.99583,0.88195 -13.405555,2.38125 4.497915,27.51666 z"
       class="unbookable"
       id="bmh212"
       onclick="alertEl(this)"
       role="link"
        />
    <path
       style="stroke:#000000;stroke-width:0.26458332px;stroke-linecap:butt;stroke-linejoin:miter;stroke-opacity:1"
       d="m 251.53055,184.55209 h -15.43403 v -0.97014 l 3.52778,-0.0882 -0.61736,-1.41111 -1.14653,-0.79375 -1.5875,-0.44097 0.17639,-10.49514 15.34584,-2.20486 z"
       class="bookable"
       tabindex="0"
       id="bmh229"
       onclick="alertEl(this)"
       role="link"
        />
    <path
       style="stroke:#000000;stroke-width:0.26458332px;stroke-linecap:butt;stroke-linejoin:miter;stroke-opacity:1"
       d="m 251.35416,193.72431 -15.25764,-0.0882 0.17639,-5.64444 0.97014,-0.17639 0.97014,-0.44097 0.70556,-0.61736 0.44097,-0.97014 0.17639,-0.52917 -3.35139,-0.17639 -0.0882,-0.52916 h 15.43403 z"
       class="bookable"
       tabindex="0"
       id="bmh230"
       onclick="alertEl(this)"
       role="link"
        />
    <path
       style="stroke:#000000;stroke-width:0.26458332px;stroke-linecap:butt;stroke-linejoin:miter;stroke-opacity:1"
       d="m 236.27291,206.42431 15.08125,-0.0882 v -12.6118 l -15.25764,-0.0882 v 0.88195 l 3.2632,0.17639 0.0882,0.88194 -0.88194,0.97014 -1.05833,0.61736 -1.32292,0.26459 z"
       class="bookable"
       tabindex="0"
       id="bmh231"
       onclick="alertEl(this)"
       role="link"
        />
    <path
       style="stroke:#000000;stroke-width:0.26458332px;stroke-linecap:butt;stroke-linejoin:miter;stroke-opacity:1"
       d="m 163.4243,216.0375 50.09445,0.17639 v -0.70555 l 3.26319,-0.26459 -0.17639,-0.88194 -0.44097,-0.88195 -0.79375,-0.52916 -0.70556,-0.35278 -1.14652,-0.26458 -0.0882,-31.22084 -1.67569,-0.26458 -0.97014,-0.61736 -1.05833,-1.14653 0.17638,-0.35278 3.08681,-0.70555 -0.70556,-4.14514 -25.13541,3.52778 -0.17639,-0.79375 -22.84236,3.26319 -7.67292,1.23472 z"
       class="unbookable"
       id="bmh214"
       onclick="alertEl(this)"
       role="link"
        />
    <path
       style="stroke:#000000;stroke-width:0.26458332px;stroke-linecap:butt;stroke-linejoin:miter;stroke-opacity:1"
       d="m 213.60694,203.24931 15.69861,-0.0882 v 9.17223 h -0.88194 L 228.6,216.1257 h -0.88195 l -0.0882,-3.2632 -1.32292,0.44097 -0.88194,0.70556 -0.70556,1.14653 -0.0882,0.88194 -11.1125,0.17639 v -0.70555 l 3.26319,-0.26459 -0.17639,-0.88194 -0.44097,-0.88195 -0.79375,-0.52916 -0.70556,-0.35278 -1.14652,-0.26458 z"
       class="unbookable"
       id="bmh225"
       onclick="alertEl(this)"
       role="link"
        />
    <path
       style="stroke:#000000;stroke-width:0.26458332px;stroke-linecap:butt;stroke-linejoin:miter;stroke-opacity:1"
       d="m 72.054859,240.73195 -0.970137,-0.17639 v 3.175 l -1.234723,-0.0882 -0.881943,-0.97014 -0.705557,-0.88194 -0.17639,-1.05833 -8.73125,-0.26459 0.0882,3.88056 -1.058334,0.26458 -0.0882,7.84931 13.758333,-0.0882 z"
       class="unbookable"
       id="bmh202"
       onclick="alertEl(this)"
       role="link"
        />
    <path
       style="stroke:#000000;stroke-width:0.26458332px;stroke-linecap:butt;stroke-linejoin:miter;stroke-opacity:1"
       d="m 58.296524,252.46181 13.758333,-0.0882 2e-6,9.6132 H 58.384722 v -5.90903 l 1.146527,-0.0882 1.5875,-0.88195 0.705557,-1.76389 -3.35139,0.0882 z"
       class="unbookable"
       id="bmh203"
       onclick="alertEl(this)"
       role="link"
        />
    <path
       style="stroke:#000000;stroke-width:0.26458332px;stroke-linecap:butt;stroke-linejoin:miter;stroke-opacity:1"
       d="m 72.054859,261.98681 -0.08819,9.525 H 58.384722 l 0.08819,-0.88195 h 3.263193 l -0.176387,-1.05833 -0.970139,-0.88194 -1.146527,-0.70556 h -1.058334 v -5.99722 z"
       class="unbookable"
       id="bmh204"
       onclick="alertEl(this)"
       role="link"
        />
    <path
       style="stroke:#000000;stroke-width:0.26458332px;stroke-linecap:butt;stroke-linejoin:miter;stroke-opacity:1"
       d="m 71.966668,271.51181 0.264581,11.37708 -18.168056,-0.0882 -0.08819,-10.40695 0.881944,-0.52916 0.440973,3.0868 1.5875,-0.70555 0.881944,-1.05834 v -1.67569 z"
       class="unbookable"
       id="bmh205"
       onclick="alertEl(this)"
       role="link"
        />
    <path
       style="stroke:#000000;stroke-width:0.26458332px;stroke-linecap:butt;stroke-linejoin:miter;stroke-opacity:1"
       d="m 53.974999,272.30556 -0.440973,-0.52917 -0.705554,3.2632 -1.322916,-0.70556 v 0 L 50.447222,273.1875 V 271.6 l -7.408333,-0.0882 -6.526389,1.05833 1.763889,10.40695 15.786804,-0.1764 z"
       class="unbookable"
       id="bmh206"
       onclick="alertEl(this)"
       role="link"
        />
    <path
       style="stroke:#000000;stroke-width:0.26458332px;stroke-linecap:butt;stroke-linejoin:miter;stroke-opacity:1"
       d="m 36.5125,272.57013 -1.675694,-10.58332 17.021527,-0.0882 v 5.55625 l -2.116667,0.26459 -2.20486,0.97014 -0.97014,1.14652 v 0.88195 l 3.263194,-0.0882 v 1.05834 l -6.790971,-0.1764 z"
       class="unbookable"
       id="bmh207"
       onclick="alertEl(this)"
       role="link"
        />
    <path
       style="stroke:#000000;stroke-width:0.26458332px;stroke-linecap:butt;stroke-linejoin:miter;stroke-opacity:1"
       d="m 49.82986,261.72222 0.0882,-15.08125 -1.499307,-0.26458 -1.058333,-0.79375 -0.705556,-1.4993 3.175,-0.26459 v -0.88194 l -15.257637,0.17639 -0.0882,16.84514 0.35278,2.02847 z"
       class="unbookable"
       id="bmh208"
       onclick="alertEl(this)"
       role="link"
        />
    <path
       style="stroke:#000000;stroke-width:0.26458332px;stroke-linecap:butt;stroke-linejoin:miter;stroke-opacity:1"
       d="m 52.299306,233.41181 0.176387,-5.73264 -1.5875,-0.35278 -1.41111,-1.05833 -0.440973,-1.41111 3.263196,0.0882 v -0.88194 l -17.63889,0.0882 0.08819,9.525 z"
       class="unbookable"
       id="bmh209"
       onclick="alertEl(this)"
       role="link"
        />
    <path
       style="stroke:#000000;stroke-width:0.26458332px;stroke-linecap:butt;stroke-linejoin:miter;stroke-opacity:1"
       d="m 65.087499,232.88264 h 18.168056 v -9.96597 l -14.816666,0.0882 -0.0882,0.97014 -0.529167,0.88195 -0.881944,0.97014 -1.234723,0.35277 h -0.61736 z"
       class="unbookable"
       id="bmh201"
       onclick="alertEl(this)"
       role="link"
        />
    <path
       style="stroke:#000000;stroke-width:0.26458332px;stroke-linecap:butt;stroke-linejoin:miter;stroke-opacity:1"
       d="m 60.060416,222.29931 -7.76111,1.7639 -17.63889,0.0882 0.08819,-7.93752 3.792363,-0.17639 -0.97014,-5.11528 -17.991667,2.64584 -0.440972,-31.92639 2.557639,-0.0882 0.08819,2.29305 10.759723,-0.0882 0.440973,-1.32292 1.146527,-1.05833 1.41111,-0.52917 0.0882,2.99861 h 0.79375 v 1.14653 l 3.175,0.26458 -0.264583,1.32292 -1.322917,0.97014 -1.675696,0.61736 v 8.02569 h 16.227779 l -0.0882,2.99861 h 0.97014 l 0.08819,2.99861 1.411113,-0.44097 1.499304,-2.11666 0.529167,1.4993 1.146529,0.97014 1.587511,0.0882 z"
       id="bmh200"
       class="unbookable"
       onclick="alertEl(this)"
       role="link"
        />
    <path
       style="stroke:#000000;stroke-width:0.26458332px;stroke-linecap:butt;stroke-linejoin:miter;stroke-opacity:1"
       d="m 36.424301,183.84651 5e-6,-9.78956 -12.259029,0.44097 -0.08819,2.91042 -4.938889,0.17639 -4e-6,4.05694 2.557639,-0.0882 0.08819,2.29305 10.759723,-0.0882 0.440973,-1.32292 1.146527,-1.05833 1.41111,-0.52917 0.0882,2.99861 z"
       id="bmh211"
       class="unbookable"
       onclick="alertEl(this)"
       role="link"
        />
    <path
       style="stroke:#000000;stroke-width:0.26458332px;stroke-linecap:butt;stroke-linejoin:miter;stroke-opacity:1"
       d="m 100.71806,147.42223 8.90763,-3.79236 8.0257,-1.6757 3.96875,-0.44097 6.61458,0.44097 5.37986,0.79375 4.8507,1.23472 4.40972,1.76389 3.35139,2.29306 1.85208,2.38125 2.11667,4.58611 0.44097,4.32153 -0.97014,4.58611 -3.08681,4.40972 -3.43958,2.64583 -1.41111,-1.67569 -0.26458,0.26458 1.5875,2.73403 -0.70556,0.35278 h -1.41111 l -1.32292,-0.52917 -1.05833,-0.61736 -1.94028,1.14653 0.88195,1.67569 -9.70139,3.70417 -11.28889,1.14653 -11.28889,-1.6757 -6.702778,-2.55764 -4.056943,-2.82222 -2.99861,-4.14514 -1.322917,-4.58611 0.08819,-2.91041 1.058333,-4.05695 4.056943,-5.46805 1.675697,1.85208 1.5875,-1.14653 -0.529167,-1.85208 0.264583,-1.49931 0.79375,-0.79375 1.940279,2.20486 0.61736,-0.52916 z"
       id="bmh213"
       class="unbookable"
       onclick="alertEl(this)"
       role="link"
        />
  </g>
</svg>
