<?xml version="1.0" encoding="UTF-8" standalone="no"?>
<svg
   xmlns:dc="http://purl.org/dc/elements/1.1/"
   xmlns:cc="http://creativecommons.org/ns#"
   xmlns:rdf="http://www.w3.org/1999/02/22-rdf-syntax-ns#"
   xmlns:svg="http://www.w3.org/2000/svg"
   xmlns="http://www.w3.org/2000/svg"
   xmlns:xlink="http://www.w3.org/1999/xlink"
   width="297mm"
   height="210mm"
   viewBox="0 0 297 210"
   version="1.1"
   id="ilc">
<style>
    path {
      fill: rgba(0, 0, 0, 0.1);
      cursor: pointer;
    }

    path:hover, path:focus {
      fill: rgba(0, 0, 255, 0.2);
    }

    .bookable {
      fill: rgba(0, 255, 0, 0.2);
    }

    .booked{
        fill: rgba(255, 0, 28, 0.3);
    }

    .mine{
        fill: rgba(255, 152, 0, 0.3);
    }

    .unbookable {
      fill: rgba(0, 0, 0, 0.1);
    }
  </style>
  <script>
      function alertEl(el) {
        var isBooked = false;
        if (el.classList.contains("booked"))
            isBooked = true;

      var nums = el.id.replace( /^\D+/g, '');
      var letters = el.id.match(/[a-zA-Z]+/g);
      window.top.location.href='/book/' + letters + '-' + nums;
      }
  </script>
  <g
     id="layer1"
     transform="translate(0,-87)">
    <image
       y="85.994789"
       x="-1.3418224"
       id="image2846"
       xlink:href="./ILC-1.png"
       preserveAspectRatio="none"
       height="214.1235"
       width="301.28485" />
    <path
       style="stroke:#000000;stroke-width:0.26458332px;stroke-linecap:butt;stroke-linejoin:miter;stroke-opacity:1"
       d="m 144.02153,166.9132 20.37291,0.0882 0.52917,-1.23472 0.97014,-1.05833 1.76389,-0.61736 0.79375,-0.0882 -0.17639,-20.46111 h -19.05 l -0.0882,0.52916 h -4.85069 z"
       id="bmh111"
       class="bookable"
       tabindex="0"
       onclick="alertEl(this)"
       role="link"
        />
    <path
       style="stroke:#000000;stroke-width:0.26458332px;stroke-linecap:butt;stroke-linejoin:miter;stroke-opacity:1"
       d="m 168.275,143.54168 17.4625,-0.0882 -0.0882,0.88194 h -3.43958 l 0.35278,1.14653 1.41111,1.32292 1.85208,0.52916 v 8.20209 l -17.63889,0.17639 z"
       id="bmh114"
       class="unbookable"
       onclick="alertEl(this)"
       role="link"
        />
    <path
       style="stroke:#000000;stroke-width:0.26458332px;stroke-linecap:butt;stroke-linejoin:miter;stroke-opacity:1"
       d="m 168.1868,155.71251 0.17639,11.90624 17.37431,0.0882 -0.0882,-0.79375 h -3.26319 l 0.52916,-1.41111 1.32292,-0.97014 1.49931,-0.44097 0.0882,-8.55486 z"
       id="bmh113"
       class="bookable"
       tabindex="0"
       onclick="alertEl(this)"
       role="link"
        />
    <path
       style="stroke:#000000;stroke-width:0.26458332px;stroke-linecap:butt;stroke-linejoin:miter;stroke-opacity:1"
       d="m 185.7375,167.70695 v 0 0.79375 l -3.43959,0.0882 0.52917,1.14653 0.61736,0.88195 2.11667,0.61736 0.17639,7.49652 -16.05139,2.11667 -1.85209,-11.20069 0.52917,-2.02848 z"
       id="bmh112"
       class="bookable"
       tabindex="0"
       onclick="alertEl(this)"
       role="link"
        />
    <path
       style="stroke:#000000;stroke-width:0.26458332px;stroke-linecap:butt;stroke-linejoin:miter;stroke-opacity:1"
       d="m 52.387499,205.54236 11.90625,0.0882 0.17639,-11.2007 h -1.411113 l 0.264583,1.5875 0.35278,1.5875 -1.76389,-0.26458 -1.41111,-1.05833 -0.440973,-1.41111 -8.290274,1.32291 0.08819,5.11528 z"
       id="bmh105"
       class="bookable"
       tabindex="0"
       onclick="alertEl(this)"
       role="link"
        />
    <path
       style="stroke:#000000;stroke-width:0.26458332px;stroke-linecap:butt;stroke-linejoin:miter;stroke-opacity:1"
       d="m 206.72777,188.52084 -1.85208,-0.17639 -1.32292,-1.32292 -0.44097,-1.4993 -8.64305,0.97013 0.26458,11.1125 12.08264,-0.0882 z"
       id="bmh116"
       class="bookable"
       tabindex="0"
       onclick="alertEl(this)"
       role="link"
        />
    <path
       style="stroke:#000000;stroke-width:0.26458332px;stroke-linecap:butt;stroke-linejoin:miter;stroke-opacity:1"
       d="m 218.89861,185.43403 h -8.73125 v 1.49931 l -1.41111,1.14652 -2.02848,0.44098 0.0882,8.99583 11.99444,0.17639 z"
       id="bmh117"
       class="bookable"
       tabindex="0"
       onclick="alertEl(this)"
       role="link"
        />
    <path
       style="stroke:#000000;stroke-width:0.26458332px;stroke-linecap:butt;stroke-linejoin:miter;stroke-opacity:1"
       d="m 230.89305,197.60486 -12.08264,0.0882 0.0882,-12.25903 8.46666,-0.0882 0.26459,1.5875 1.23472,1.05833 2.11667,0.52917 z"
       id="bmh118"
       class="bookable"
       tabindex="0"
       onclick="alertEl(this)"
       role="link"
        />
    <path
       style="stroke:#000000;stroke-width:0.26458332px;stroke-linecap:butt;stroke-linejoin:miter;stroke-opacity:1"
       d="m 243.15208,197.51666 -12.25903,0.0882 0.0882,-9.08402 1.41111,-0.17639 1.41111,-0.79375 0.44097,-0.79375 v -1.49931 l 0.79375,0.17639 0.0882,1.23472 4.40972,-0.0882 0.0882,-1.14653 3.43959,0.0882 z"
       id="bmh119"
       class="bookable"
       tabindex="0"
       onclick="alertEl(this)"
       role="link"
        />
    <path
       style="stroke:#000000;stroke-width:0.26458332px;stroke-linecap:butt;stroke-linejoin:miter;stroke-opacity:1"
       d="m 52.387499,205.54236 1.411111,10.14236 6.790973,0.0882 0.440973,-1.76389 1.146527,-0.79375 1.5875,-0.44097 v 3.0868 h 0.79375 l -0.264584,-10.23055 z"
       id="bmh104"
       class="bookable"
       tabindex="0"
       onclick="alertEl(this)"
       role="link"
        />
    <path
       style="stroke:#000000;stroke-width:0.26458332px;stroke-linecap:butt;stroke-linejoin:miter;stroke-opacity:1"
       d="m 171.71459,215.59654 v 0 l 1.4111,0.17638 v -3.08681 l 2.20486,0.88195 0.52917,1.32291 0.26458,1.05834 9.525,-0.0882 0.0882,-11.81805 -14.11111,-0.0882 z"
       id="bmh131"
       class="bookable"
       tabindex="0"
       onclick="alertEl(this)"
       role="link"
        />
    <path
       style="stroke:#000000;stroke-width:0.26458332px;stroke-linecap:butt;stroke-linejoin:miter;stroke-opacity:1"
       d="m 194.73333,215.50834 v -17.90348 l 15.16944,0.17639 v 17.90347 l -11.64166,0.0882 -0.61736,-1.85208 -1.14653,-0.97014 -1.49931,-0.0882 0.17639,2.29306 z"
       id="bmh130"
       class="bookable"
       tabindex="0"
       onclick="alertEl(this)"
       role="link"
        />
    <path
       style="stroke:#000000;stroke-width:0.26458332px;stroke-linecap:butt;stroke-linejoin:miter;stroke-opacity:1"
       d="m 209.90277,197.78125 14.81667,-0.17639 0.44097,15.25764 -1.4993,0.0882 -1.49931,1.14652 -0.70555,1.6757 -11.55348,-0.0882 z"
       id="bmh129"
       class="bookable"
       tabindex="0"
       onclick="alertEl(this)"
       role="link"
        />
    <path
       style="stroke:#000000;stroke-width:0.26458332px;stroke-linecap:butt;stroke-linejoin:miter;stroke-opacity:1"
       d="m 224.71944,197.60486 17.99167,-0.0882 h 0.44097 v 10.31875 l -3.52778,0.0882 0.17639,3.08681 -11.1125,0.0882 -0.70555,-1.5875 -1.32292,-1.14652 -1.23472,-0.0882 -0.26459,4.58611 z"
       id="bmh128"
       class="bookable"
       tabindex="0"
       onclick="alertEl(this)"
       role="link"
        />
    <path
       style="stroke:#000000;stroke-width:0.26458332px;stroke-linecap:butt;stroke-linejoin:miter;stroke-opacity:1"
       d="m 194.64514,179.26042 0.26458,-35.63055 15.08125,-0.0882 v 35.71875 l -11.64167,0.0882 -0.26458,-1.05834 -0.88195,-1.32291 -1.14652,-0.61737 h -0.79375 l 0.0882,2.91042 z"
       id="bmh115ab"
       class="unbookable"
       onclick="alertEl(this)"
       role="link"
        />
    <path
       style="stroke:#000000;stroke-width:0.26458332px;stroke-linecap:butt;stroke-linejoin:miter;stroke-opacity:1"
       d="m 209.99097,179.26042 11.46528,0.0882 0.44097,-1.49931 1.05833,-1.05833 1.76389,-0.61736 v 3.175 h 0.44097 v -35.71875 l -15.16944,-0.0882 z"
       id="bmh115cd"
       class="unbookable"
       onclick="alertEl(this)"
       role="link"
        />
    <path
       style="stroke:#000000;stroke-width:0.26458332px;stroke-linecap:butt;stroke-linejoin:miter;stroke-opacity:1"
       d="m 225.16041,179.34862 0.61736,-0.0882 -0.0882,-3.175 0.97014,0.26458 1.14653,0.61737 0.79375,1.14652 0.0882,0.97014 11.81806,0.0882 v -35.71875 l -15.34584,0.17639 z"
       id="bmh115ef"
       class="unbookable"
       onclick="alertEl(this)"
       role="link"
        />
    <path
       style="stroke:#000000;stroke-width:0.26458332px;stroke-linecap:butt;stroke-linejoin:miter;stroke-opacity:1"
       d="m 240.50625,179.17223 h 0.61736 l 0.17639,-2.73403 1.67569,0.26458 0.97014,1.41111 0.17639,1.14653 12.25903,0.0882 -0.52917,-35.71875 -15.34583,-0.17639 z"
       id="bmh121"
       class="unbookable"
       onclick="alertEl(this)"
       role="link"
        />
    <path
       style="stroke:#000000;stroke-width:0.26458332px;stroke-linecap:butt;stroke-linejoin:miter;stroke-opacity:1"
       d="m 256.20486,170.44098 0.97014,0.0882 0.70555,3.2632 1.23472,-0.61737 1.05834,-1.14652 0.44097,-1.85209 11.72985,-1.67569 -0.17637,-24.25347 h -9.43681 l -0.44098,1.41111 -1.05833,1.14653 -1.67569,0.70555 -0.0882,-3.175 h -3.61597 z"
       id="bmh115i"
       class="unbookable"
       onclick="alertEl(this)"
       role="link"
        />
    <path
       style="stroke:#000000;stroke-width:0.26458332px;stroke-linecap:butt;stroke-linejoin:miter;stroke-opacity:1"
       d="m 272.16806,144.24724 11.37708,0.17638 -0.0882,-28.39861 h -1.2347 l -0.1764,2.38125 -1.4111,-0.26459 -1.05834,-0.88194 -0.52916,-1.41111 -0.52917,1.76389 -1.41113,0.61736 -0.88193,0.26458 -0.1764,-3.08681 H 255.7639 v 24.16528 l 2.20486,0.61736 1.05833,1.05834 0.17639,1.14652 -3.35139,0.0882 -0.0882,1.85208 3.70416,1e-5 0.0882,3.175 1.67569,-0.70555 1.05833,-1.14653 0.44098,-1.41111 z"
       id="bmh115h"
       class="unbookable"
       onclick="alertEl(this)"
       role="link"
        />
    <path
       style="stroke:#000000;stroke-width:0.26458332px;stroke-linecap:butt;stroke-linejoin:miter;stroke-opacity:1"
       d="M 255.7639,115.40764 254,114.87848 l -44.00903,0.35278 0.0882,16.49236 -12.25902,0.0882 -0.0882,2.99861 -4.23333,0.26459 0.44097,1.5875 1.49931,1.41111 1.94027,0.61736 -2.20486,0.79375 -0.97014,0.88194 -0.79375,2.02847 4.40973,0.17639 v 1.05834 h 58.03194 l 1e-5,-1.14653 3.35139,-0.0882 -0.17639,-1.14652 -1.05833,-1.05834 -2.20486,-0.61736 z"
       id="bmh115"
       class="unbookable"
       onclick="alertEl(this)"
       role="link"
        />
    <path
       style="stroke:#000000;stroke-width:0.26458332px;stroke-linecap:butt;stroke-linejoin:miter;stroke-opacity:1"
       d="m 44.361806,211.71597 0.881943,3.175 1.411111,-0.70555 0.881946,-1.23472 0.264583,-1.14653 1.058333,1.4993 1.763888,0.79375 0.529166,-0.26458 -0.44097,-2.82222 2.293054,-0.44097 -1.146527,-9.26042 -0.08819,-5.11528 L 56.35625,195.4 56.091667,178.37848 25.488194,178.29028 25.4,214.80278 Z"
       id="bmh106"
       class="unbookable"
       onclick="alertEl(this)"
       role="link"
       />
    <path
       style="stroke:#000000;stroke-width:0.26458332px;stroke-linecap:butt;stroke-linejoin:miter;stroke-opacity:1"
       d="m 41.363193,262.42778 v -19.05 l 35.189583,-0.17639 0.440973,29.45695 -10.759723,0.35277 -0.08819,2.82223 -1.940276,-0.35278 -1.14653,-2.02847 -0.881943,1.76388 -2.028474,0.79375 v -3.175 h -9.084026 l -2.204861,-10.23055 z"
       id="tearoom"
       class="unbookable"
       onclick="alertEl(this)"
       role="link"
        />
    <path
       style="stroke:#000000;stroke-width:0.26458332px;stroke-linecap:butt;stroke-linejoin:miter;stroke-opacity:1"
       d="m 105.83333,194.87084 3.61598,-0.79375 -0.88195,-4.93889 10.40694,-1.85209 0.70556,3.175 1.76389,-0.61736 0.88194,-1.41111 v -1.67569 l 26.37014,-2.91042 0.26458,0.97014 -3.0868,0.35278 0.17639,0.88194 1.4993,1.32292 1.14653,0.0882 -1.5875,1.23473 -0.61736,1.94027 2.99861,-0.35277 0.61736,0.35277 21.60764,-2.64583 0.26458,9.96597 2.55764,1.14653 0.70556,1.32292 0.0882,0.79375 -3.43958,0.17638 -0.17639,14.19931 -62.26527,-0.17639 z"
       id="bmh108"
       class="unbookable"
       onclick="alertEl(this)"
       role="link"
        />
    <path
       style="stroke:#000000;stroke-width:0.26458332px;stroke-linecap:butt;stroke-linejoin:miter;stroke-opacity:1"
       d="m 243.15208,207.83541 13.22917,-0.17638 0.35277,-3.26319 0.26459,-18.52084 -10.40695,-0.0882 -0.70555,1.67569 -1.23472,0.97014 -1.76389,0.0882 z"
       id="bmh120"
       class="unbookable"
       onclick="alertEl(this)"
       role="link"
        />
    <path
       style="stroke:#000000;stroke-width:0.26458332px;stroke-linecap:butt;stroke-linejoin:miter;stroke-opacity:1"
       d="m 144.3743,142.92431 -50.094441,0.0882 -0.08819,10.58333 -0.79375,1.85208 v 1.41111 l 1.058334,0.97014 0.79375,-1.32291 2.20486,-1.94028 -3.175,7.32014 0.881946,6.35 2.469444,4.58611 2.998607,2.64583 4.05695,2.02847 6.79097,2.02847 6.52639,0.97014 6.70277,-0.0882 v 0 l 9.525,-1.5875 9.96597,-4.23333 1.94028,1.05833 1.6757,0.26458 0.79375,-0.70555 -1.6757,-2.02848 2.73403,-2.20486 -1.85208,-1.67569 -3.96875,-0.17639 0.44097,-25.04722 h 4.85069 l -0.0882,-1.14653 z"
       id="bmh109"
       class="unbookable"
       onclick="alertEl(this)"
       role="link"
        />
  </g>
</svg>
